<?xml version="1.0" standalone="no"?>
<!DOCTYPE svg PUBLIC "-//W3C//DTD SVG 20010904//EN"
 "http://www.w3.org/TR/2001/REC-SVG-20010904/DTD/svg10.dtd">
<svg version="1.0" xmlns="http://www.w3.org/2000/svg"
 width="2240.000000pt" height="1260.000000pt" viewBox="0 0 2240.000000 1260.000000"
 preserveAspectRatio="xMidYMid meet">

<g transform="translate(0.000000,1260.000000) scale(0.100000,-0.100000)"
fill="#000000" stroke="none">
<path d="M10565 10396 c-115 -37 -209 -117 -255 -220 -28 -61 -31 -64 -72 -71
-62 -10 -295 -88 -356 -119 -343 -174 -608 -464 -743 -815 -36 -94 -78 -257
-87 -342 l-7 -64 -52 -6 c-101 -13 -190 -89 -219 -187 -13 -42 -15 -93 -12
-240 l3 -187 31 -55 c33 -60 99 -112 162 -130 20 -5 69 -10 107 -11 l70 0 -79
-20 c-111 -27 -189 -72 -271 -154 -112 -112 -155 -216 -157 -376 -2 -275 197
-505 468 -542 l83 -11 6 -46 c58 -458 338 -885 727 -1109 l83 -47 3 -171 2
-171 -32 -11 c-18 -5 -328 -102 -690 -215 -361 -113 -680 -215 -710 -226 -68
-25 -218 -110 -286 -163 -228 -174 -380 -415 -455 -717 -20 -82 -21 -113 -24
-878 -4 -880 -7 -839 62 -882 32 -20 40 -20 3646 -20 l3614 0 50 24 c63 29
112 77 139 136 21 44 21 58 24 828 l2 783 48 -42 c76 -68 141 -93 252 -97 77
-3 106 1 153 17 115 40 208 133 249 248 16 46 19 76 16 153 -7 172 57 97 -877
1033 -454 455 -844 838 -866 851 -109 65 -256 73 -375 21 -61 -27 -102 -65
-676 -638 l-612 -610 -568 178 c-313 97 -604 188 -646 201 l-78 25 0 174 c0
96 4 175 8 175 17 0 150 85 227 145 92 72 214 193 281 280 135 174 240 415
279 636 10 52 19 103 21 114 3 18 16 23 86 33 371 53 575 447 408 787 -38 79
-106 154 -183 205 -61 40 -191 89 -245 91 -15 1 17 5 70 9 105 8 155 29 210
87 56 58 71 114 76 278 6 215 -12 296 -85 368 -43 43 -90 67 -151 75 l-45 7
-17 100 c-35 202 -94 370 -185 524 -210 355 -542 603 -936 700 l-107 26 -22
52 c-42 101 -149 195 -259 227 -65 19 -170 20 -226 2z m182 -276 c70 -43 68
-14 71 -717 l3 -633 -141 0 -140 0 0 633 c0 613 1 633 20 665 41 68 124 91
187 52z m-477 -820 l0 -530 -478 0 -479 0 9 58 c34 229 156 474 323 649 l74
78 1 -257 0 -258 135 0 135 0 0 349 0 349 53 22 c66 29 186 69 210 70 16 0 17
-32 17 -530z m914 510 c36 -11 89 -32 118 -45 l53 -25 5 -347 5 -348 137 -3
138 -3 2 252 3 252 54 -54 c168 -170 305 -442 337 -671 l6 -48 -476 0 -476 0
0 530 c0 447 2 530 14 530 8 0 43 -9 80 -20z m1136 -1450 l0 -140 -1645 0
-1645 0 0 133 c0 74 3 137 7 140 3 4 744 7 1645 7 l1638 0 0 -140z m-405 -955
c-1 -461 -3 -553 -17 -630 -99 -533 -524 -941 -1057 -1016 -129 -18 -333 -7
-460 26 -467 121 -805 473 -917 955 -15 65 -18 148 -21 643 l-4 567 1238 -2
1238 -3 0 -540z m-2745 -11 l0 -277 -39 6 c-88 11 -166 70 -213 160 -31 61
-31 166 1 227 50 96 134 156 224 159 l27 1 0 -276z m3135 250 c52 -24 112 -86
136 -137 27 -61 25 -158 -5 -222 -41 -89 -120 -149 -211 -162 l-45 -6 0 278 0
278 43 -5 c23 -3 60 -13 82 -24z m1863 -1748 c15 -8 386 -374 825 -813 842
-844 805 -803 798 -883 -3 -35 -29 -75 -61 -94 -35 -20 -102 -21 -138 -2 -15
8 -335 324 -712 701 -377 377 -697 693 -712 701 -32 17 -76 18 -115 3 -15 -5
-342 -324 -733 -715 l-705 -704 -56 0 c-42 0 -63 5 -83 21 -53 42 -72 120 -42
177 17 30 1580 1594 1611 1611 28 15 91 13 123 -3z m-3488 -409 c183 0 216 3
308 25 l103 25 -3 -221 -3 -221 -32 -65 c-79 -161 -229 -249 -405 -237 -183
12 -335 144 -373 323 -14 66 -22 404 -10 416 3 2 51 -7 107 -20 93 -22 124
-25 308 -25z m3912 -774 l478 -478 0 -887 0 -888 -210 0 -210 0 0 426 c0 483
1 477 -74 514 -41 19 -60 20 -472 20 -473 0 -472 0 -518 -63 -20 -28 -21 -42
-24 -463 l-3 -434 -209 0 -210 0 0 882 0 883 482 482 c266 266 485 483 488
483 3 0 220 -215 482 -477z m-4549 248 c32 -88 86 -171 157 -241 75 -76 156
-127 262 -165 100 -37 256 -45 360 -20 93 22 197 70 270 125 94 71 199 216
229 318 7 23 16 42 21 42 5 0 42 -10 83 -22 l75 -22 0 -396 c0 -429 -3 -454
-57 -547 -31 -54 -119 -134 -175 -160 -89 -42 -130 -45 -623 -41 -460 3 -471
3 -525 25 -115 47 -209 147 -247 263 -16 49 -18 96 -18 455 l0 399 70 23 c39
12 76 21 84 20 7 -1 22 -26 34 -56z m-440 -892 c40 -134 100 -232 202 -327 78
-73 151 -117 255 -153 57 -19 91 -23 273 -27 l207 -4 0 -139 0 -139 -685 0
-685 0 0 739 0 739 148 47 c81 25 172 54 202 64 l55 18 6 -381 c5 -313 9 -391
22 -437z m2550 701 l37 -11 0 -173 c0 -147 -3 -182 -20 -231 -26 -77 -26 -190
0 -265 18 -51 19 -85 20 -433 l0 -377 -687 2 -688 3 0 135 0 135 205 6 c229 6
261 13 395 82 58 30 101 63 155 117 84 85 129 154 168 262 l27 73 3 385 c1
212 4 390 7 397 2 7 59 -7 172 -43 92 -30 185 -59 206 -64z m-3253 -1205 l0
-1105 -415 0 -416 0 3 703 c4 682 4 704 25 778 78 277 261 506 501 628 45 23
268 101 290 101 9 0 12 -228 12 -1105z m3970 -360 l0 -745 -205 0 -205 0 0
683 0 682 103 0 c94 0 107 2 167 31 36 18 81 46 100 62 19 17 36 31 38 32 1 0
2 -335 2 -745z m1510 -400 l0 -345 -275 0 -275 0 0 338 c0 186 3 342 7 345 3
4 127 7 275 7 l268 0 0 -345z m-3840 -70 l0 -275 -685 0 -685 0 0 275 0 275
685 0 685 0 0 -275z m1650 0 l0 -275 -690 0 -690 0 0 268 c0 148 3 272 7 275
3 4 314 7 690 7 l683 0 0 -275z"/>
<path d="M10058 7656 c-49 -13 -63 -21 -116 -70 -58 -53 -77 -100 -77 -191 0
-69 4 -86 27 -126 59 -100 143 -145 257 -137 298 22 343 438 57 523 -59 18
-85 18 -148 1z"/>
<path d="M11160 7657 c-126 -35 -200 -131 -200 -259 0 -149 115 -268 260 -268
74 0 121 15 171 53 126 97 140 283 31 400 -62 66 -176 98 -262 74z"/>
<path d="M10319 6574 c-46 -53 -85 -99 -87 -102 -2 -7 103 -80 146 -102 200
-100 463 -84 666 39 91 56 91 56 6 153 -41 45 -79 89 -85 96 -10 11 -21 8 -61
-18 -131 -83 -317 -83 -447 0 -26 16 -49 30 -51 30 -2 0 -41 -43 -87 -96z"/>
<path d="M13995 4637 c-173 -58 -283 -195 -293 -366 -7 -131 34 -237 127 -324
218 -204 555 -121 662 162 17 46 20 72 17 151 -5 123 -41 203 -123 278 -83 76
-151 104 -260 108 -57 3 -105 -1 -130 -9z m176 -272 c43 -23 69 -71 69 -127 0
-138 -191 -181 -255 -58 -60 116 70 245 186 185z"/>
</g>
</svg>
